<mxfile host="65bd71144e">
    <diagram id="A_pXdUovKvudJu0Fbdrz" name="Page-1">
        <mxGraphModel dx="1715" dy="1717" grid="1" gridSize="10" guides="1" tooltips="1" connect="1" arrows="1" fold="1" page="1" pageScale="1" pageWidth="850" pageHeight="1100" math="0" shadow="0">
            <root>
                <mxCell id="0"/>
                <mxCell id="1" parent="0"/>
                <mxCell id="14" style="edgeStyle=none;html=1;exitX=0.25;exitY=0;exitDx=0;exitDy=0;entryX=0.25;entryY=1;entryDx=0;entryDy=0;" edge="1" parent="1" source="7" target="8">
                    <mxGeometry relative="1" as="geometry"/>
                </mxCell>
                <mxCell id="15" style="edgeStyle=none;html=1;exitX=0.5;exitY=0;exitDx=0;exitDy=0;entryX=0.5;entryY=1;entryDx=0;entryDy=0;" edge="1" parent="1" source="7" target="8">
                    <mxGeometry relative="1" as="geometry"/>
                </mxCell>
                <mxCell id="7" value="RF" style="rounded=0;whiteSpace=wrap;html=1;direction=south;" vertex="1" parent="1">
                    <mxGeometry x="80" y="-290" width="110" height="300" as="geometry"/>
                </mxCell>
                <mxCell id="8" value="&lt;br&gt;&lt;br&gt;&lt;br&gt;&lt;br&gt;Read &lt;br&gt;Register 1&lt;span style=&quot;white-space: pre;&quot;&gt;&#9;&lt;/span&gt;&amp;nbsp; &amp;nbsp; &amp;nbsp;Read Data 1&lt;br&gt;&lt;br&gt;&lt;br&gt;&lt;br&gt;Read&lt;br&gt;Register 2&lt;span style=&quot;white-space: pre;&quot;&gt;&#9;&lt;/span&gt;&amp;nbsp; &amp;nbsp; &amp;nbsp;Read Data 2&lt;br&gt;&lt;br&gt;&lt;br&gt;&lt;br&gt;Write Register&lt;br&gt;&lt;br&gt;&lt;br&gt;&lt;br&gt;Write Data" style="rounded=0;whiteSpace=wrap;html=1;direction=south;align=left;" vertex="1" parent="1">
                    <mxGeometry x="420" y="-290" width="170" height="300" as="geometry"/>
                </mxCell>
                <mxCell id="16" value="" style="triangle;whiteSpace=wrap;html=1;direction=north;" vertex="1" parent="1">
                    <mxGeometry x="95" y="-50" width="80" height="60" as="geometry"/>
                </mxCell>
                <mxCell id="20" value="Mux" style="shadow=0;dashed=0;align=center;html=1;strokeWidth=1;shape=mxgraph.electrical.abstract.mux2;" vertex="1" parent="1">
                    <mxGeometry x="690" y="-180" width="100" height="190" as="geometry"/>
                </mxCell>
                <mxCell id="30" value="" style="externalPins=0;recursiveResize=0;shadow=0;dashed=0;align=center;html=1;strokeWidth=1;shape=mxgraph.rtl.abstract.entity;left=,:clk;right=,:np;top=0;bottom=0;drawPins=0;snapToPoint=1;resizable=0;editable=1;" vertex="1" parent="1">
                    <mxGeometry x="550" y="-140" width="40" height="60" as="geometry"/>
                </mxCell>
                <mxCell id="31" value="" style="externalPins=0;recursiveResize=0;shadow=0;dashed=0;align=center;html=1;strokeWidth=1;shape=mxgraph.rtl.abstract.entity;left=,:clk;right=,:np;top=0;bottom=0;drawPins=0;snapToPoint=1;resizable=0;editable=1;" vertex="1" parent="1">
                    <mxGeometry x="-40" y="-190" width="40" height="60" as="geometry"/>
                </mxCell>
            </root>
        </mxGraphModel>
    </diagram>
</mxfile>